<?xml version="1.0" encoding="iso-8859-1"?>
<!-- Generator: Adobe Illustrator 18.1.1, SVG Export Plug-In . SVG Version: 6.00 Build 0)  -->
<svg version="1.1" id="Capa_1" xmlns="http://www.w3.org/2000/svg" xmlns:xlink="http://www.w3.org/1999/xlink" x="0px" y="0px"
	 viewBox="0 0 15.712 15.712" style="enable-background:new 0 0 15.712 15.712;" xml:space="preserve">
<g>
	<path style="fill:#030104;" d="M13.473,4.02V1.333H12.81L9.73,0L9.558,0.398l2.158,0.935H9.047v0.496
		c-1.756,0.038-4.226,0.205-4.83,2.01c-0.48,1.43,1.178,2.908,2.032,3.811c1.129,1.19,2.844,2.55,3.229,4.228
		c0.488,2.128-5.333,2.334-6.372,2.427c-0.68,0.06-1.312,1.48-0.449,1.404c2.412-0.214,6.232-0.357,7.752-2.642
		c0.979-1.471,0.024-3.058-0.942-4.237c-1.16-1.416-2.662-2.593-3.664-4.133c-0.271-0.418-0.429-0.813-0.25-0.919
		c0.962-0.573,2.375-0.542,3.493-0.554v0.797h4.427V4.02z"/>
</g>
<g>
</g>
<g>
</g>
<g>
</g>
<g>
</g>
<g>
</g>
<g>
</g>
<g>
</g>
<g>
</g>
<g>
</g>
<g>
</g>
<g>
</g>
<g>
</g>
<g>
</g>
<g>
</g>
<g>
</g>
</svg>
