<?xml version="1.0" encoding="iso-8859-1"?>
<!-- Generator: Adobe Illustrator 18.1.1, SVG Export Plug-In . SVG Version: 6.00 Build 0)  -->
<svg version="1.1" id="Capa_1" xmlns="http://www.w3.org/2000/svg" xmlns:xlink="http://www.w3.org/1999/xlink" x="0px" y="0px"
	 viewBox="0 0 419.617 419.617" style="enable-background:new 0 0 419.617 419.617;" xml:space="preserve">
<g>
	<g>
		<path d="M128.208,105.117c7.933-5.1,10.2-15.583,5.1-23.517c-5.1-7.933-15.583-10.2-23.517-5.1
			c-54.117,34.283-86.133,93.217-86.133,156.967c0,102.567,83.583,186.15,186.15,186.15s186.15-83.583,186.15-186.15
			c0-61.483-30.317-119-81.317-153.85c-7.65-5.383-18.417-3.4-23.517,4.533c-5.383,7.65-3.4,18.417,4.533,23.517
			c41.65,28.333,66.583,75.367,66.583,125.8c0,83.867-68.283,152.15-152.15,152.15s-152.15-68.283-152.15-152.15
			C57.658,181.05,84.008,133.167,128.208,105.117z"/>
		<path d="M226.808,249.333V17c0-9.35-7.65-17-17-17s-17,7.65-17,17v232.333c0,9.35,7.65,17,17,17S226.808,258.683,226.808,249.333z
			"/>
	</g>
</g>
<g>
</g>
<g>
</g>
<g>
</g>
<g>
</g>
<g>
</g>
<g>
</g>
<g>
</g>
<g>
</g>
<g>
</g>
<g>
</g>
<g>
</g>
<g>
</g>
<g>
</g>
<g>
</g>
<g>
</g>
</svg>
